<svg width="72" height="72" viewBox="0 0 72 72" fill="none" xmlns="http://www.w3.org/2000/svg">
<path fillRule="evenodd" clip-rule="evenodd" d="M30.0019 3.87506C30.0694 1.71562 31.8395 0 34 0H40C42.1605 0 43.9306 1.71562 43.998 3.87506L44.0332 5H46C48.2091 5 50 6.79086 50 9V11.4261C54.3602 10.4394 59.0663 11.0984 63.0607 14.4271C71.3589 21.3423 70.5954 35.8381 60.7472 43.7669C58.3706 45.6803 56.5035 47.2665 55.2178 48.901C54.9245 49.2739 54.6732 49.6347 54.4617 49.9878L58.5156 50.5361C60.4995 50.8044 61.9795 52.4981 61.9795 54.5V62C61.9795 64.2091 60.1886 66 57.9795 66H16.0205C13.8114 66 12.0205 64.2091 12.0205 62V54.5C12.0205 52.4981 13.5005 50.8044 15.4844 50.5361L19.5383 49.9878C19.3268 49.6347 19.0755 49.2739 18.7822 48.901C17.4965 47.2665 15.6294 45.6803 13.2528 43.7669C3.40462 35.8381 2.64109 21.3423 10.9393 14.4271C14.9337 11.0984 19.6398 10.4394 24 11.4261V9C24 6.79086 25.7909 5 28 5H29.9668L30.0019 3.87506Z" fill="#9c9c9c"/>

</svg>
